<svg width="43" height="45" viewBox="0 0 43 45" fill="none" xmlns="http://www.w3.org/2000/svg">
<path d="M19.2624 45C13.6077 45 8.93678 43.0063 5.37939 39.0723C1.82201 35.1382 0 29.9292 0 23.6434C0 18.0306 1.87043 13.1137 5.56287 9.02471C9.38527 4.80621 14.1149 2.67537 19.6217 2.67537C22.1088 2.67537 24.2901 3.18332 26.1019 4.14588C28.9687 5.69004 29.5727 7.80817 29.5727 9.31169C29.5908 10.4489 29.1807 11.5517 28.4234 12.4025C27.6559 13.2593 26.6086 13.8172 25.4674 13.9772C25.2863 14.0141 25.1018 14.032 24.917 14.0305H24.6188C24.1904 14.0352 23.7629 13.9908 23.3447 13.8984C22.9475 13.808 22.5696 13.6481 22.2285 13.4261C21.9433 13.2849 21.7028 13.0679 21.5336 12.7989C21.3645 12.53 21.2734 12.2196 21.2704 11.9022C21.2755 11.5951 21.3586 11.2943 21.5118 11.0278C21.6651 10.7613 21.8836 10.5379 22.147 10.3784C22.2953 10.2811 22.4351 10.1715 22.5649 10.0508C22.7139 9.84541 22.8022 9.60258 22.8197 9.34979V9.15423C22.8197 9.00185 22.8197 8.60311 21.8004 8.13834C20.873 7.72832 19.8665 7.52631 18.8521 7.54658C17.1081 7.52505 15.3825 7.90394 13.8091 8.6539C12.2098 9.45885 10.8048 10.6 9.69106 11.9987C8.56668 13.3908 7.7402 14.9976 7.26256 16.7201C6.73864 18.6405 6.47552 20.6222 6.48025 22.6123C6.74527 22.3634 7.02558 22.1094 7.32117 21.8503C9.30118 20.1081 11.2149 18.8738 13.0115 18.1855C14.5206 17.6145 16.0766 17.1751 17.662 16.8725C18.5437 16.7049 19.9912 16.4966 22.0858 16.2375C24.0811 15.9836 25.6967 15.7525 26.8868 15.5264C28.7241 15.1759 30.118 14.7645 31.0354 14.287C32.679 13.4311 32.679 12.5854 32.679 12.2552C32.684 12.0763 32.6634 11.8976 32.6178 11.7244C32.3203 11.91 31.9775 12.011 31.6266 12.0165C31.406 12.0125 31.1885 11.964 30.9873 11.8739C30.7861 11.7838 30.6052 11.6541 30.4557 11.4924C30.3061 11.3308 30.191 11.1407 30.1172 10.9335C30.0434 10.7263 30.0124 10.5064 30.0262 10.287C30.0402 10.0289 30.0838 9.77322 30.1562 9.52503C30.3372 8.83745 30.7502 8.23296 31.3259 7.81325C31.9533 7.30555 32.7372 7.02924 33.5454 7.03101C34.1147 7.01755 34.6789 7.1401 35.191 7.38841C35.703 7.63673 36.148 8.00359 36.4887 8.45834C37.1153 9.2676 37.4518 10.2628 37.4443 11.2851C37.4738 13.0802 36.846 14.8247 35.6783 16.1918C34.6004 17.4617 32.9848 18.6096 30.8748 19.6128C29.1381 20.4064 27.3174 21.0027 25.447 21.3907C24.3716 21.6167 22.6439 21.9138 20.1492 22.2973C17.7691 22.6656 16.0286 22.9907 14.9787 23.265C13.2127 23.7682 11.5586 24.6007 10.1039 25.7184C9.05348 26.504 8.11106 27.4236 7.30079 28.4537C7.89199 31.1407 9.31137 33.6118 11.5309 35.8189C14.1709 38.4348 17.0326 39.7072 20.2817 39.7072C22.6108 39.7072 24.5806 39.2704 26.1427 38.4094C27.8653 37.4545 28.0641 36.4487 28.0641 35.7732C28.071 35.4562 28.0333 35.1399 27.952 34.8335C27.8449 34.4855 27.7506 34.1782 27.6665 33.9115C27.5525 33.6422 27.5113 33.3478 27.547 33.0577C27.5828 32.7676 27.6943 32.4919 27.8704 32.2582C28.0453 32.0311 28.2726 31.8495 28.5331 31.7288C28.7935 31.6081 29.0793 31.5518 29.3662 31.5648H29.4733L29.5778 31.5801C30.4181 31.72 31.1934 32.1187 31.7947 32.7204C32.2352 33.1328 32.5853 33.6316 32.823 34.1853C33.0607 34.7391 33.1809 35.3359 33.1759 35.9382C33.1759 38.7802 31.5934 41.0964 28.4718 42.8209C25.8598 44.266 22.7637 45 19.2624 45Z" fill="#7A7A7A"/>
<path d="M35.9791 11.285C36.0071 12.7353 35.5012 14.1456 34.5571 15.2495C33.6126 16.3636 32.1745 17.3795 30.2429 18.2972C28.6067 19.045 26.891 19.6064 25.1285 19.9709C24.1092 20.1842 22.3739 20.4805 19.9224 20.8598C17.471 21.2391 15.6991 21.5718 14.6067 21.8579C11.0311 22.897 7.90746 25.0991 5.73367 28.1133C6.29259 31.3472 7.87761 34.2586 10.4887 36.8474C13.3887 39.7258 16.6496 41.165 20.2715 41.165C22.8657 41.165 25.0546 40.6706 26.8384 39.6818C28.6222 38.693 29.5133 37.3892 29.5116 35.7706C29.5196 35.3107 29.4603 34.8521 29.3357 34.4093C29.2185 34.0232 29.1166 33.688 29.0248 33.3934C28.9995 33.353 28.9861 33.3064 28.9861 33.2588C28.9861 33.2112 28.9995 33.1645 29.0248 33.1242C29.0678 33.0832 29.1193 33.0524 29.1758 33.0339C29.2322 33.0155 29.2921 33.0099 29.351 33.0175C29.8935 33.1163 30.3911 33.3829 30.7729 33.7794C31.0712 34.0536 31.3081 34.3873 31.4684 34.7588C31.6286 35.1303 31.7086 35.5313 31.7031 35.9357C31.7031 38.2197 30.3865 40.089 27.7532 41.5434C25.3579 42.8742 22.5276 43.5396 19.2624 43.5396C14.0147 43.5396 9.74974 41.7237 6.46757 38.0919C3.12934 34.4093 1.46107 29.5923 1.46277 23.6408C1.46277 18.3768 3.1922 13.8298 6.65105 9.99992C10.2016 6.08196 14.5252 4.12214 19.6217 4.12044C21.8744 4.12044 23.8026 4.5522 25.4063 5.41571C27.2088 6.38588 28.1092 7.6803 28.1075 9.29895C28.1242 10.0811 27.8449 10.841 27.3251 11.4272C26.7679 12.0388 26.0095 12.4315 25.1871 12.5346C25.0984 12.5536 25.0078 12.5621 24.917 12.56H24.6189C24.3003 12.5647 23.9823 12.5332 23.6709 12.466C23.4179 12.4109 23.1787 12.3056 22.9676 12.1562C22.8071 12.085 22.7255 11.9936 22.7255 11.8869C22.7255 11.7803 22.8071 11.6711 22.9676 11.5619C23.2384 11.3892 23.4844 11.1808 23.699 10.9422C24.0179 10.5264 24.2115 10.0286 24.257 9.50721C24.2737 9.445 24.2831 9.38109 24.2851 9.31673V9.12879C24.2851 8.13999 23.6633 7.35775 22.4197 6.78208C21.2987 6.2812 20.0805 6.03318 18.8521 6.05572C16.8747 6.03137 14.9186 6.46613 13.1389 7.32558C11.3489 8.22105 9.7765 9.49517 8.53167 11.059C7.27988 12.604 6.36043 14.3892 5.8305 16.3035C5.25295 18.4161 4.97083 20.598 4.99212 22.7875C4.99212 23.2548 5.00741 23.7627 5.03289 24.3113C5.05838 24.8599 5.10934 25.4745 5.18324 26.1577C6.08852 24.9694 7.12258 23.8843 8.26665 22.9221C10.1252 21.2865 11.8741 20.1546 13.5135 19.5265C14.9447 18.9849 16.4207 18.5693 17.9246 18.2845C18.774 18.1254 20.218 17.9188 22.2566 17.6648C24.2952 17.4109 25.9278 17.1687 27.1544 16.9385C29.137 16.5592 30.6515 16.1004 31.698 15.5619C33.3221 14.7154 34.1341 13.6097 34.1341 12.245C34.1341 11.3104 33.864 10.6831 33.3212 10.358C33.0886 10.2286 32.822 10.1728 32.5567 10.198C32.3876 10.1866 32.2187 10.2236 32.07 10.3047C31.9465 10.435 31.7853 10.5238 31.6088 10.5587C31.5196 10.5587 31.4737 10.4672 31.4737 10.2869C31.4737 10.2691 31.5068 10.1168 31.5706 9.82976C31.6849 9.46767 31.9183 9.15453 32.2331 8.94085C32.5969 8.63892 33.0568 8.47596 33.5302 8.48116C33.8744 8.46827 34.2167 8.53898 34.5274 8.68719C34.8381 8.83541 35.1081 9.05669 35.314 9.33197C35.7509 9.88927 35.9854 10.5778 35.9791 11.285Z" fill="#292929"/>
<path d="M22.8228 44.2762C22.7132 44.2762 22.6164 44.2762 22.5272 44.2762C21.3117 44.2432 20.6772 43.3645 20.6772 42.4984C20.6744 42.0751 20.8245 41.6649 21.1002 41.3428C21.2302 41.1854 21.4442 40.9924 22.489 40.1873C22.5844 40.114 22.6747 40.0342 22.7591 39.9485V8.96382L20.9753 8.70985C19.6821 8.52632 18.3777 8.43212 17.0714 8.42794C15.4354 8.42794 14.7601 8.68191 14.5027 8.82668C14.3906 8.89017 14.2479 8.97906 14.2122 9.36256H14.3396C14.4177 9.36693 14.496 9.36693 14.5741 9.36256L14.5868 9.34986L14.6735 9.29653C14.961 9.11222 15.2949 9.01272 15.6367 9.00954C15.8816 9.00969 16.1232 9.06479 16.3438 9.17075C16.5644 9.27671 16.7582 9.43081 16.9108 9.62161C17.0864 9.84524 17.2086 10.1057 17.2682 10.3834C17.3278 10.661 17.3232 10.9485 17.2549 11.2242C17.0894 11.9709 16.7198 12.6574 16.1871 13.2077C15.8067 13.6015 15.3486 13.9124 14.8415 14.1209C14.3345 14.3294 13.7897 14.431 13.2413 14.4192C12.6986 14.4289 12.1604 14.3182 11.6659 14.0951C11.1714 13.8719 10.7329 13.5419 10.3822 13.129C9.69538 12.3135 9.33269 11.2751 9.36287 10.2108C9.36287 7.90983 10.8128 6.03043 13.6669 4.62342C16.3221 3.35745 19.235 2.72032 22.1781 2.7618C23.7889 2.75471 25.3953 2.93024 26.9663 3.28498C28.3653 3.60753 29.8102 3.93261 31.2652 4.25262C32.6682 4.54962 34.0994 4.69354 35.5336 4.68183C36.1826 4.70131 36.8312 4.62949 37.4601 4.4685C37.0947 4.39832 36.7647 4.20457 36.5261 3.91999C36.2874 3.6354 36.1547 3.27743 36.1503 2.90656C36.1532 2.60392 36.2256 2.30596 36.3618 2.03544C36.6338 1.43607 37.0718 0.926505 37.6243 0.566604C38.1768 0.206702 38.8209 0.0114053 39.4808 0.0036511C39.9505 -0.0178075 40.4196 0.0554888 40.8601 0.219146C41.3006 0.382803 41.7035 0.63345 42.0444 0.95605C42.6789 1.58844 43 2.44941 43 3.51102C43 5.41074 41.8074 7.06664 39.4579 8.4254C37.3626 9.64006 34.9785 10.2716 32.5547 10.254C31.7729 10.2597 30.9915 10.2156 30.2153 10.1219C29.9886 10.0915 29.7414 10.0559 29.4738 10.0127V39.9816C29.5488 40.0555 29.6288 40.1243 29.7133 40.1873C30.7581 40.9797 30.9696 41.1625 31.1047 41.3352C31.2616 41.5272 31.377 41.7494 31.4436 41.9879C31.5003 42.1653 31.5296 42.3503 31.5302 42.5365C31.5302 43.3899 30.883 44.2534 29.6471 44.2839C29.5757 44.2839 29.4967 44.2839 29.3923 44.2839C29.0865 44.2839 28.5845 44.2585 27.8633 44.2077C26.7981 44.1315 26.3343 44.1162 26.1152 44.1162C25.5775 44.1162 24.7417 44.1594 23.6306 44.2458C23.3095 44.2635 23.042 44.2762 22.8228 44.2762Z" fill="#7A7A7A"/>
<path d="M41.5369 3.49827C41.5369 4.85279 40.6025 6.07102 38.7338 7.15294C36.8617 8.23908 34.7305 8.80233 32.5644 8.78345C31.8456 8.78888 31.1272 8.74816 30.4137 8.66154C29.7919 8.58027 28.9943 8.44313 28.0208 8.24503V40.1923C28.0208 40.5309 28.291 40.9085 28.8312 41.325C29.5532 41.8736 29.932 42.1741 29.9677 42.2266C30.0084 42.271 30.0365 42.3254 30.0493 42.3841C30.0654 42.4273 30.0749 42.4727 30.0773 42.5187C30.0773 42.7117 29.9142 42.8082 29.5906 42.8082C29.0529 42.8155 28.5153 42.7934 27.9801 42.7422C27.0882 42.6787 26.4689 42.6482 26.1275 42.6482C25.549 42.6482 24.6826 42.6914 23.5308 42.7828C23.2253 42.8155 22.9177 42.824 22.6109 42.8082C22.3025 42.8082 22.1496 42.7016 22.1496 42.4857C22.1462 42.447 22.1506 42.4079 22.1624 42.3709C22.1742 42.3338 22.1932 42.2995 22.2184 42.2698C22.5892 41.9351 22.977 41.6198 23.3804 41.325C23.9411 40.8958 24.2214 40.5072 24.2214 40.1669V7.70406C22.9472 7.5085 21.9483 7.35358 21.1915 7.24692C19.8292 7.052 18.4548 6.9527 17.0786 6.94976C15.5615 6.94976 14.4573 7.14787 13.7658 7.54406C13.0744 7.94026 12.7346 8.58705 12.7465 9.48442C12.748 9.79352 12.8642 10.0911 13.0727 10.32C13.2319 10.5352 13.4619 10.688 13.7225 10.7517C13.928 10.7864 14.1359 10.8042 14.3443 10.8051C14.5815 10.8144 14.8188 10.787 15.0476 10.7238C15.1953 10.6785 15.3329 10.6052 15.4528 10.5079C15.598 10.419 15.7076 10.419 15.7764 10.5079C15.8145 10.5624 15.8394 10.6249 15.8491 10.6906C15.8588 10.7562 15.8531 10.8232 15.8325 10.8863C15.7224 11.3739 15.4799 11.822 15.1317 12.1816C14.8891 12.4333 14.5961 12.6313 14.2716 12.7626C13.9471 12.8939 13.5985 12.9555 13.2485 12.9435C12.9168 12.9534 12.5871 12.8882 12.2843 12.7527C11.9815 12.6172 11.7135 12.415 11.5004 12.1613C11.0409 11.61 10.8013 10.9092 10.8277 10.193C10.8277 8.4863 11.9897 7.06152 14.3137 5.91864C16.767 4.74968 19.4588 4.16373 22.1777 4.20686C23.6778 4.19994 25.1738 4.36268 26.6371 4.69194C28.0438 5.01703 29.481 5.34127 30.9488 5.66466C32.4555 5.99208 33.9936 6.15473 35.5357 6.14975C36.8149 6.14975 37.8019 5.98044 38.4968 5.6418C39.1916 5.30317 39.5382 4.79523 39.5365 4.11797C39.5365 3.66843 39.3963 3.38652 39.1185 3.2697C38.7684 3.13991 38.3962 3.07951 38.0228 3.09191C37.7501 3.09191 37.6151 3.03858 37.6151 2.93191C37.622 2.83727 37.6498 2.74534 37.6966 2.6627C37.8284 2.35028 38.0434 2.07976 38.3184 1.88046C38.6511 1.62115 39.0606 1.47913 39.4829 1.47664C39.7609 1.44311 40.0428 1.47295 40.3074 1.56393C40.5721 1.6549 40.8125 1.80463 41.0106 2.00179C41.2087 2.19896 41.3592 2.43841 41.4508 2.70205C41.5424 2.9657 41.5727 3.24664 41.5394 3.52367L41.5369 3.49827Z" fill="#292929"/>
</svg>
